<svg width="1439" height="487" viewBox="0 0 1439 487" fill="none" xmlns="http://www.w3.org/2000/svg">
<path d="M1318 219L1313.15 220.222C1313.71 222.443 1315.71 224 1318 224V219ZM1288 100L1292.85 98.7777C1292.35 96.8183 1290.73 95.3488 1288.73 95.0536C1286.73 94.7584 1284.75 95.6955 1283.71 97.4286L1288 100ZM1104.5 406H1099.5C1099.5 408.248 1101 410.219 1103.17 410.819C1105.33 411.418 1107.63 410.499 1108.79 408.571L1104.5 406ZM1104.5 5H1109.5C1109.5 2.58669 1107.78 0.517775 1105.4 0.0821381C1103.03 -0.353498 1100.68 0.96848 1099.83 3.22451L1104.5 5ZM923.5 481.5L918.515 481.108C918.32 483.588 919.978 485.834 922.405 486.379C924.832 486.923 927.291 485.601 928.174 483.275L923.5 481.5ZM953.5 100L958.485 100.392C958.674 97.9857 957.117 95.7877 954.784 95.1677C952.451 94.5478 950.009 95.6828 948.978 97.8656L953.5 100ZM839.5 341.5L834.884 343.422C835.644 345.247 837.407 346.453 839.384 346.499C841.36 346.545 843.178 345.422 844.022 343.634L839.5 341.5ZM788.5 219L793.116 217.078C792.34 215.214 790.519 214 788.5 214V219ZM1444 214H1318V224H1444V214ZM1322.85 217.778L1292.85 98.7777L1283.15 101.222L1313.15 220.222L1322.85 217.778ZM1283.71 97.4286L1100.21 403.429L1108.79 408.571L1292.29 102.571L1283.71 97.4286ZM1109.5 406V5H1099.5V406H1109.5ZM1099.83 3.22451L918.826 479.725L928.174 483.275L1109.17 6.77549L1099.83 3.22451ZM928.485 481.892L958.485 100.392L948.515 99.608L918.515 481.108L928.485 481.892ZM948.978 97.8656L834.978 339.366L844.022 343.634L958.022 102.134L948.978 97.8656ZM844.116 339.578L793.116 217.078L783.884 220.922L834.884 343.422L844.116 339.578ZM788.5 214H0.5V224H788.5V214Z" fill="url(#paint0_linear_68_550)"/>
<defs>
<linearGradient id="paint0_linear_68_550" x1="1444" y1="212" x2="-6.66036e-05" y2="212" gradientUnits="userSpaceOnUse">
<stop stop-color="#FFDEDA" stop-opacity="0"/>
<stop offset="0.286458" stop-color="#FFC3BB"/>
<stop offset="1" stop-color="#FFDEDA" stop-opacity="0"/>
</linearGradient>
</defs>
</svg>
