<?xml version="1.0" standalone="no"?>
<!DOCTYPE svg PUBLIC "-//W3C//DTD SVG 20010904//EN"
 "http://www.w3.org/TR/2001/REC-SVG-20010904/DTD/svg10.dtd">
<svg version="1.0" xmlns="http://www.w3.org/2000/svg"
 width="1440.000000pt" height="1440.000000pt" viewBox="0 0 1440.000000 1440.000000"
 preserveAspectRatio="xMidYMid meet">
<metadata>
Created by potrace 1.14, written by Peter Selinger 2001-2017
</metadata>
<g transform="translate(0.000000,1440.000000) scale(0.100000,-0.100000)"
fill="#000000" stroke="none">
<path d="M7880 12153 c-18 -7 -77 -63 -66 -63 4 0 0 -7 -8 -16 -9 -8 -14 -19
-11 -24 3 -4 -2 -11 -11 -14 -8 -3 -13 -10 -10 -15 4 -5 1 -15 -6 -23 -7 -7
-14 -20 -16 -28 -2 -8 -12 -35 -24 -60 -11 -25 -21 -51 -22 -58 -2 -8 -7 -17
-13 -20 -5 -4 -9 -15 -7 -24 1 -10 -2 -18 -7 -18 -6 0 -7 -4 -4 -10 3 -5 1
-10 -5 -10 -7 0 -9 -7 -6 -16 3 -8 2 -12 -4 -9 -6 3 -10 -5 -10 -19 0 -14 -5
-26 -11 -26 -5 0 -7 -4 -4 -10 3 -5 1 -10 -4 -10 -6 0 -10 -3 -9 -7 2 -5 -5
-27 -15 -51 -9 -23 -17 -44 -17 -47 0 -3 -7 -20 -17 -38 -9 -17 -18 -36 -19
-42 -5 -27 -9 -40 -14 -45 -3 -3 -11 -16 -18 -29 -11 -19 -11 -22 0 -16 7 3 6
1 -3 -7 -9 -7 -14 -19 -12 -25 3 -7 -1 -13 -8 -13 -7 0 -9 -3 -6 -6 3 -4 1
-16 -5 -28 -7 -11 -11 -24 -10 -28 1 -5 -3 -8 -10 -8 -6 0 -9 -3 -5 -6 3 -4 0
-19 -9 -35 -8 -16 -14 -30 -13 -31 0 -2 -5 -16 -12 -33 -7 -16 -13 -32 -14
-35 -1 -3 -9 -23 -19 -45 -10 -22 -19 -47 -21 -55 -2 -8 -4 -17 -5 -20 -1 -3
-2 -8 -1 -12 0 -5 -4 -8 -10 -8 -5 0 -7 -4 -4 -10 3 -5 1 -10 -5 -10 -6 0 -9
-4 -5 -9 3 -5 1 -12 -5 -16 -6 -4 -8 -11 -5 -16 4 -5 1 -9 -5 -9 -6 0 -8 -4
-5 -10 3 -5 1 -10 -5 -10 -6 0 -8 -5 -5 -11 4 -6 -1 -17 -11 -24 -11 -8 -14
-15 -7 -15 9 0 7 -11 -6 -34 -11 -19 -17 -37 -14 -40 4 -3 1 -6 -5 -6 -7 0
-11 -3 -10 -7 1 -8 -4 -21 -30 -83 -8 -19 -15 -39 -16 -45 -1 -5 -7 -20 -13
-31 -7 -12 -9 -24 -6 -28 3 -3 2 -6 -4 -6 -9 0 -39 -77 -35 -92 1 -5 -2 -8 -7
-8 -5 0 -12 -7 -15 -16 -4 -10 -2 -13 7 -8 6 4 3 -3 -8 -15 -11 -13 -18 -24
-16 -25 2 0 -3 -17 -11 -36 -16 -36 -30 -69 -33 -82 -2 -5 -4 -10 -5 -13 -1
-3 -3 -8 -4 -12 -1 -5 -5 -14 -9 -20 -5 -7 -5 -17 -2 -23 3 -6 -1 -7 -10 -4
-11 5 -14 2 -9 -10 3 -9 1 -23 -6 -31 -6 -8 -8 -20 -4 -26 4 -8 3 -9 -4 -5 -7
4 -13 1 -13 -8 -1 -16 -4 -28 -9 -43 -1 -5 -2 -11 -1 -15 0 -5 -3 -8 -9 -8 -5
0 -10 -8 -10 -19 0 -10 -6 -24 -14 -31 -8 -6 -12 -18 -9 -26 3 -8 0 -14 -7
-14 -6 0 -9 -4 -6 -9 4 -5 0 -12 -6 -14 -10 -4 -9 -6 1 -6 11 -1 11 -5 -3 -20
-9 -10 -18 -28 -19 -40 -1 -11 -4 -21 -8 -21 -7 0 -23 -50 -21 -62 1 -5 -3 -8
-9 -8 -5 0 -7 -4 -4 -10 3 -5 1 -10 -6 -10 -7 0 -10 -3 -6 -6 3 -4 0 -19 -8
-34 -8 -15 -11 -30 -8 -34 4 -3 1 -6 -5 -6 -7 0 -12 -9 -12 -19 0 -11 -5 -23
-10 -26 -6 -4 -8 -11 -5 -16 4 -5 2 -9 -3 -9 -5 0 -9 -6 -9 -12 -1 -23 -8 -42
-20 -56 -7 -7 -13 -21 -13 -30 0 -10 -7 -28 -16 -40 -8 -12 -13 -22 -9 -22 3
0 -1 -13 -10 -30 -9 -16 -13 -30 -9 -30 4 0 0 -7 -7 -16 -7 -9 -14 -23 -16
-32 -1 -9 -7 -18 -13 -20 -5 -2 -8 -7 -5 -12 3 -4 -7 -33 -21 -64 -21 -47 -28
-55 -40 -45 -8 7 -17 9 -21 6 -3 -4 -15 -2 -26 4 -10 6 -17 7 -14 2 8 -12
-213 -10 -232 1 -9 6 -12 5 -8 -1 8 -12 -212 -11 -232 1 -9 6 -12 5 -8 -1 8
-12 -212 -11 -232 1 -9 6 -12 5 -8 -1 8 -12 -212 -11 -232 1 -9 6 -12 5 -8 -1
8 -12 -212 -11 -232 1 -9 6 -12 5 -8 -1 4 -6 -36 -9 -106 -8 -70 1 -115 -3
-119 -9 -5 -8 -8 -7 -8 1 0 7 -7 10 -16 6 -9 -3 -20 0 -25 8 -5 8 -9 10 -9 4
0 -5 -16 -11 -36 -13 -25 -1 -33 1 -28 10 5 7 3 8 -7 3 -23 -15 -72 -16 -81
-3 -4 7 -8 9 -8 3 0 -5 -16 -11 -36 -13 -25 -1 -33 1 -28 10 5 7 3 8 -7 3 -23
-15 -72 -16 -81 -3 -4 7 -8 9 -8 3 0 -5 -16 -11 -36 -13 -25 -1 -33 1 -28 10
5 7 3 8 -7 3 -23 -15 -72 -16 -81 -3 -4 7 -8 9 -8 3 0 -5 -16 -11 -36 -13 -25
-1 -33 1 -28 10 5 7 3 8 -7 3 -23 -15 -72 -16 -81 -3 -4 7 -8 9 -8 3 0 -5 -16
-11 -36 -13 -25 -1 -33 1 -28 10 5 7 3 8 -7 3 -23 -15 -72 -16 -81 -3 -4 7 -8
9 -8 3 0 -5 -16 -11 -36 -13 -25 -1 -33 1 -28 10 5 7 3 8 -7 3 -23 -15 -72
-16 -81 -3 -4 7 -8 9 -8 3 0 -5 -16 -11 -36 -13 -25 -1 -33 1 -28 10 5 7 3 8
-7 3 -23 -15 -72 -16 -81 -3 -4 7 -8 9 -8 3 0 -5 -16 -11 -36 -13 -25 -1 -33
1 -28 10 5 7 3 8 -7 3 -23 -15 -72 -16 -81 -3 -4 7 -8 9 -8 3 0 -5 -16 -11
-36 -13 -25 -1 -33 1 -28 10 5 7 3 8 -7 3 -23 -15 -72 -16 -81 -3 -4 7 -8 9
-8 3 0 -5 -16 -11 -36 -13 -25 -1 -33 1 -28 10 5 7 3 8 -7 3 -23 -15 -72 -16
-81 -3 -4 7 -8 9 -8 3 0 -5 -16 -11 -36 -13 -25 -1 -33 1 -28 10 5 7 3 8 -7 3
-23 -15 -72 -16 -81 -3 -4 7 -8 9 -8 3 0 -5 -16 -11 -36 -13 -25 -1 -33 1 -28
10 5 7 3 8 -7 3 -23 -15 -72 -16 -81 -3 -4 7 -8 9 -8 3 0 -5 -16 -11 -36 -13
-25 -1 -33 1 -28 10 5 7 3 8 -7 3 -23 -15 -72 -16 -81 -3 -4 7 -8 9 -8 3 0 -5
-16 -11 -36 -13 -25 -1 -33 1 -28 10 5 7 3 8 -7 3 -23 -15 -72 -16 -81 -3 -4
7 -8 9 -8 3 0 -5 -16 -11 -36 -13 -25 -1 -33 1 -28 10 5 7 3 8 -7 3 -23 -15
-72 -16 -81 -3 -4 7 -8 9 -8 3 0 -5 -16 -11 -36 -13 -25 -1 -33 1 -28 10 5 7
3 8 -7 3 -23 -15 -72 -16 -81 -3 -4 7 -8 9 -8 3 0 -5 -16 -11 -36 -13 -25 -1
-33 1 -28 10 5 7 3 8 -7 3 -23 -15 -72 -16 -81 -3 -4 7 -8 9 -8 3 0 -5 -16
-11 -36 -13 -25 -1 -33 1 -28 10 5 7 3 8 -7 3 -23 -15 -72 -16 -81 -3 -4 7 -8
9 -8 3 0 -5 -16 -11 -36 -13 -25 -1 -33 1 -28 10 5 7 3 8 -7 3 -23 -15 -72
-16 -81 -3 -4 7 -8 9 -8 3 0 -5 -16 -11 -36 -13 -25 -1 -33 1 -28 10 5 7 3 8
-7 3 -23 -15 -72 -16 -81 -3 -4 7 -8 9 -8 3 0 -5 -16 -11 -36 -13 -25 -1 -33
1 -28 10 5 7 3 8 -7 3 -23 -15 -72 -16 -81 -3 -4 7 -8 9 -8 3 0 -5 -16 -11
-36 -13 -25 -1 -33 1 -28 10 5 7 3 8 -7 3 -23 -15 -72 -16 -81 -3 -4 7 -8 9
-8 3 0 -5 -16 -11 -36 -13 -25 -1 -33 1 -28 10 5 7 3 8 -7 3 -23 -15 -72 -16
-81 -3 -4 7 -8 9 -8 3 0 -5 -16 -11 -36 -13 -25 -1 -33 1 -28 10 5 7 3 8 -7 3
-23 -15 -72 -16 -81 -3 -4 7 -8 9 -8 3 0 -5 -16 -11 -36 -13 -25 -1 -33 1 -28
10 5 7 3 8 -7 3 -23 -15 -72 -16 -81 -3 -4 7 -8 9 -8 3 0 -5 -16 -11 -36 -13
-25 -1 -33 1 -28 10 5 7 3 8 -7 3 -23 -15 -72 -16 -81 -3 -4 7 -8 9 -8 3 0 -5
-16 -11 -36 -13 -25 -1 -33 1 -28 10 5 7 3 8 -7 3 -23 -15 -72 -16 -81 -3 -4
7 -8 9 -8 3 0 -5 -16 -11 -36 -13 -25 -1 -33 1 -28 10 5 7 3 8 -7 3 -23 -15
-72 -16 -81 -3 -4 7 -8 9 -8 3 0 -5 -16 -11 -36 -13 -25 -1 -33 1 -28 10 5 7
3 8 -7 3 -23 -15 -72 -16 -81 -3 -4 7 -8 9 -8 3 0 -5 -16 -11 -36 -13 -25 -1
-33 1 -28 10 5 7 3 8 -7 3 -23 -15 -72 -16 -81 -3 -4 7 -8 9 -8 3 0 -5 -16
-11 -36 -13 -25 -1 -33 1 -28 10 5 7 3 8 -7 3 -23 -15 -72 -16 -81 -3 -4 7 -8
9 -8 3 0 -5 -16 -11 -36 -13 -25 -1 -33 1 -28 10 5 7 3 8 -7 2 -8 -5 -21 -9
-29 -9 -13 0 -15 -397 -18 -3503 l-2 -3502 7192 2 7193 3 1 3493 c0 2951 -2
3496 -14 3510 -7 9 -11 12 -8 6 7 -14 -91 -13 -113 1 -9 5 -12 4 -8 -2 8 -12
-212 -11 -232 1 -9 6 -12 5 -8 -1 8 -12 -212 -11 -232 1 -9 6 -12 5 -8 -1 8
-12 -212 -11 -232 1 -9 6 -12 5 -8 -1 8 -12 -212 -11 -232 1 -9 6 -12 5 -8 -1
8 -12 -212 -11 -232 1 -9 6 -12 5 -8 -1 8 -12 -212 -11 -232 1 -9 6 -12 5 -8
-1 8 -12 -212 -11 -232 1 -9 6 -12 5 -8 -1 8 -12 -212 -11 -232 1 -9 6 -12 5
-8 -1 8 -12 -212 -11 -232 1 -9 6 -12 5 -8 -1 8 -12 -212 -11 -232 1 -9 6 -12
5 -8 -1 8 -12 -212 -11 -232 1 -9 6 -12 5 -8 -1 8 -12 -212 -11 -232 1 -9 6
-12 5 -8 -1 8 -12 -212 -11 -232 1 -9 6 -12 5 -8 -1 8 -12 -212 -11 -232 1 -9
6 -12 5 -8 -1 8 -12 -212 -11 -232 1 -9 6 -12 5 -8 -1 8 -12 -212 -11 -232 1
-9 6 -12 5 -8 -1 8 -12 -212 -11 -232 1 -9 6 -12 5 -8 -1 8 -12 -212 -11 -232
1 -9 6 -12 5 -8 -1 8 -12 -212 -11 -232 1 -9 6 -12 5 -8 -1 8 -12 -212 -11
-232 1 -9 6 -12 5 -8 -1 8 -12 -212 -11 -232 1 -9 6 -12 5 -8 -1 8 -12 -212
-11 -232 1 -9 6 -12 5 -8 -1 8 -12 -212 -11 -232 1 -9 6 -12 5 -8 -1 8 -12
-212 -11 -232 1 -9 6 -12 5 -8 -1 8 -12 -212 -11 -232 1 -9 6 -12 5 -8 0 3 -6
-30 -10 -84 -10 -98 0 -93 -4 -90 71 5 110 7 131 13 140 4 6 3 17 -2 24 -4 8
-5 25 -1 40 4 14 6 46 6 71 0 25 4 48 10 52 6 5 6 8 -1 8 -8 0 -10 11 -5 33 4
17 6 48 5 67 0 19 3 42 7 51 5 9 5 19 2 23 -9 9 -10 56 -1 56 4 0 8 5 8 11 0
5 -5 7 -12 3 -7 -5 -8 -3 -3 6 8 14 11 42 16 168 2 41 8 72 14 72 5 0 3 5 -5
10 -12 8 -13 11 -1 19 9 6 10 10 2 16 -7 4 -8 12 -4 18 5 7 9 51 8 99 0 49 4
88 8 88 4 0 3 9 -3 20 -8 15 -8 20 2 20 9 0 9 3 -2 10 -8 5 -10 10 -4 10 6 0
10 23 9 58 -1 31 2 67 7 79 4 13 3 25 -3 29 -5 3 -6 11 -2 17 11 15 10 38 -1
56 -6 9 -5 12 2 7 7 -4 10 7 10 31 -2 91 6 179 16 192 8 11 8 13 -1 8 -14 -9
-14 32 0 51 6 8 5 12 -3 12 -10 0 -10 3 0 15 10 12 10 15 0 15 -9 0 -9 4 1 17
12 14 12 15 1 9 -11 -7 -12 -4 -3 12 7 14 8 23 1 27 -6 4 -7 13 -2 23 5 9 8
63 8 119 -1 57 3 103 8 103 5 0 3 7 -4 15 -7 8 -9 15 -4 15 11 0 10 142 -1
160 -5 8 -4 11 2 7 13 -8 14 72 1 97 -7 12 -7 16 0 12 6 -3 10 11 10 34 1 27
-3 38 -10 34 -7 -5 -8 -2 -2 7 12 19 13 100 2 123 -7 13 -7 16 1 12 7 -5 9 2
5 21 -3 15 -6 46 -7 68 -2 22 -6 45 -10 52 -4 6 -1 14 5 16 10 4 10 6 1 6 -7
1 -13 9 -13 19 0 22 -22 72 -32 72 -5 0 -8 7 -8 15 0 8 -5 15 -11 15 -6 0 -17
7 -25 15 -11 11 -37 15 -97 14 -45 0 -89 -3 -97 -6z m-65 -1044 c0 -43 -3 -79
-7 -79 -4 0 -3 -11 2 -25 5 -14 6 -25 2 -25 -4 0 -7 -41 -7 -90 0 -53 -4 -90
-10 -90 -6 0 -6 -3 0 -8 9 -6 12 -26 5 -34 -2 -3 -6 -94 -11 -236 -2 -40 -7
-76 -12 -79 -5 -3 -4 -9 3 -13 9 -5 9 -13 2 -27 -6 -11 -7 -25 -2 -33 5 -8 6
-19 2 -25 -4 -5 -7 -37 -8 -70 -4 -142 -13 -277 -18 -282 -3 -4 -1 -12 5 -20
7 -7 7 -13 2 -13 -5 0 -10 -16 -11 -35 -1 -26 2 -34 11 -28 9 5 9 4 0 -8 -6
-8 -14 -56 -16 -107 -2 -51 -6 -95 -9 -98 -4 -3 -2 -19 2 -35 5 -16 6 -27 2
-25 -4 2 -7 -27 -7 -65 0 -38 -3 -69 -6 -69 -3 0 -3 -14 -1 -31 3 -20 0 -34
-9 -40 -8 -5 -9 -9 -3 -9 6 0 9 -17 7 -42 -2 -24 -5 -73 -6 -110 -1 -38 -4
-68 -7 -68 -3 0 -5 -31 -4 -70 0 -38 -3 -75 -7 -82 -4 -6 -3 -22 2 -35 5 -13
6 -22 1 -20 -4 3 -8 -34 -10 -81 -5 -129 -7 -150 -14 -158 -4 -3 -3 -15 3 -25
5 -11 6 -19 1 -19 -8 0 -9 -23 -2 -55 1 -5 1 -12 0 -15 -4 -8 -9 -77 -13 -166
-2 -44 -7 -87 -12 -94 -4 -7 -2 -16 5 -20 8 -5 9 -13 4 -21 -9 -14 -12 -46
-17 -154 -1 -33 -6 -66 -10 -72 -5 -8 -4 -13 3 -13 7 0 8 -6 1 -18 -6 -10 -6
-24 -1 -32 5 -8 6 -18 3 -23 -9 -14 -13 -61 -17 -189 -3 -65 -7 -121 -9 -125
-3 -5 -5 -44 -6 -88 -1 -44 -6 -81 -11 -83 -6 -2 -6 -11 0 -23 8 -14 7 -19 -1
-19 -8 0 -8 -4 1 -15 7 -8 8 -15 3 -15 -4 0 -8 -27 -8 -60 0 -34 -4 -60 -10
-60 -5 0 -3 -5 5 -10 8 -5 11 -10 5 -10 -6 0 -11 -34 -12 -78 -1 -42 -5 -94
-8 -115 -4 -29 -2 -37 7 -31 9 6 9 3 -1 -9 -7 -9 -11 -24 -7 -32 3 -8 2 -15
-2 -15 -4 0 -6 -25 -5 -55 1 -36 -2 -53 -9 -49 -6 4 -6 -2 1 -15 9 -16 9 -21
-1 -22 -10 0 -10 -2 0 -6 6 -2 9 -9 6 -14 -11 -19 -11 -59 0 -59 8 0 8 -3 -1
-8 -6 -4 -11 -29 -10 -60 1 -28 0 -52 -3 -52 -3 0 -6 -28 -7 -62 -1 -35 -5
-101 -8 -148 -4 -47 -8 -113 -9 -147 0 -35 -4 -63 -7 -63 -3 0 -6 -7 -6 -15 0
-8 4 -15 9 -15 5 0 6 -6 1 -12 -4 -7 -9 -31 -10 -53 -1 -22 -5 -80 -8 -130 -3
-49 -7 -103 -8 -120 -1 -16 -6 -36 -11 -44 -6 -10 -6 -12 2 -7 16 9 15 -7 0
-22 -8 -8 -8 -12 -1 -12 7 0 8 -13 4 -37 -4 -21 -6 -51 -5 -68 1 -16 -1 -34
-4 -40 -10 -16 -9 -45 0 -51 4 -3 5 -10 1 -16 -7 -13 -12 -61 -16 -165 -1 -40
-6 -73 -12 -73 -5 0 -3 -5 5 -10 8 -5 11 -10 5 -10 -6 0 -11 -34 -11 -80 -1
-44 -4 -94 -8 -111 -4 -22 -2 -28 7 -23 9 5 9 4 0 -7 -7 -7 -13 -17 -13 -22 0
-4 6 -5 13 -1 8 5 7 2 -2 -9 -8 -10 -11 -20 -8 -24 4 -3 2 -14 -4 -24 -5 -11
-6 -19 -1 -19 4 0 8 -9 8 -20 0 -11 -3 -20 -6 -20 -3 0 -7 -37 -9 -82 -6 -157
-7 -174 -14 -185 -4 -6 -2 -15 4 -19 8 -4 7 -9 -2 -15 -11 -7 -11 -9 -1 -9 9
0 10 -5 2 -19 -7 -14 -7 -22 0 -26 6 -4 7 -12 3 -18 -4 -7 -8 -44 -9 -83 0
-39 -4 -76 -8 -83 -4 -6 -1 -11 6 -11 8 0 9 -3 3 -8 -12 -8 -14 -72 -3 -72 5
0 8 -5 8 -11 0 -5 -5 -7 -11 -3 -8 4 -8 1 -1 -12 5 -11 8 -27 7 -36 -2 -10 1
-18 7 -18 6 0 8 -7 4 -15 -3 -8 -1 -15 4 -15 5 0 17 -13 26 -29 10 -17 21 -28
26 -25 4 3 8 1 8 -4 0 -12 58 -37 85 -37 11 -1 26 -5 34 -9 9 -6 12 -5 8 1 -4
6 6 10 24 11 17 0 37 6 45 13 8 6 14 8 14 3 0 -5 5 -1 11 9 6 9 14 15 19 12 4
-3 11 2 14 11 3 8 10 12 16 9 6 -4 7 1 3 11 -4 11 -3 15 5 10 6 -4 16 3 23 16
7 13 18 27 25 31 8 4 14 15 14 22 0 8 4 15 8 15 5 0 15 12 23 28 8 15 22 36
31 46 10 11 24 32 30 48 7 15 16 28 20 28 5 0 8 7 8 15 0 9 7 18 15 21 8 4 12
10 9 15 -3 5 4 18 15 30 11 12 18 26 15 31 -3 4 0 8 5 8 6 0 11 7 11 15 0 8 4
15 9 15 8 0 24 37 22 53 -1 4 3 7 9 7 5 0 10 7 10 15 0 8 4 15 9 15 9 0 24 33
26 53 0 4 5 11 11 15 10 7 24 36 23 48 0 4 3 10 8 13 17 12 46 64 32 56 -8 -3
-7 -1 1 7 9 7 22 28 29 45 7 18 18 30 24 26 6 -3 7 -1 3 6 -4 6 7 32 23 57 17
25 26 42 20 38 -12 -7 21 47 34 57 5 3 8 8 8 10 -2 13 13 49 20 49 5 0 9 9 9
20 0 11 5 20 11 20 5 0 8 4 5 9 -4 5 -1 11 4 13 6 2 12 10 14 18 1 8 12 30 24
49 11 19 19 38 16 43 -3 4 -1 8 5 8 5 0 13 10 17 23 3 12 15 34 25 49 11 14
19 33 19 42 0 8 8 20 18 25 9 6 13 11 8 11 -5 0 -3 7 4 15 7 8 9 15 4 15 -4 0
1 7 12 16 10 8 12 12 4 8 -13 -6 -13 -4 1 12 8 10 34 57 58 103 23 47 47 91
53 98 6 7 7 13 2 13 -5 0 -2 6 7 13 9 7 16 14 17 17 4 32 16 59 24 54 6 -4 7
2 3 16 -5 15 -4 20 4 16 10 -6 13 0 10 20 0 4 3 10 8 13 5 3 29 45 53 94 24
48 47 87 52 87 4 0 5 6 2 14 -3 7 3 22 13 31 10 10 17 20 16 22 -4 5 10 38 19
44 5 3 10 16 11 27 1 12 5 22 10 22 4 0 5 4 2 10 -3 5 0 7 9 4 11 -4 14 1 12
20 -2 17 2 26 11 26 8 0 11 5 8 10 -3 6 1 17 10 26 9 9 14 23 11 30 -3 8 1 14
9 14 8 0 14 3 13 8 -4 10 51 123 70 145 8 9 11 17 7 17 -5 0 2 12 16 27 13 14
17 22 9 18 -13 -8 -13 -7 -1 8 7 9 10 17 5 17 -5 0 -1 5 9 11 9 6 15 14 12 20
-4 5 -1 9 5 9 6 0 8 5 5 10 -3 6 -1 10 5 10 6 0 9 4 5 9 -3 6 3 14 12 20 10 6
14 11 9 11 -5 0 -3 7 4 15 7 8 9 15 4 15 -4 0 1 7 12 16 10 8 12 12 4 8 -11
-6 -10 -2 3 13 9 11 17 25 17 31 0 7 4 12 10 12 5 0 10 3 9 8 -2 15 14 52 23
52 6 0 8 7 4 15 -3 9 0 15 10 15 8 0 13 4 10 9 -3 4 1 17 9 27 8 10 15 27 15
37 0 9 4 17 9 17 5 0 15 16 22 35 7 19 17 35 22 35 5 0 7 6 5 12 -3 7 4 21 13
32 10 10 16 23 13 27 -2 4 2 11 10 16 14 8 16 12 16 34 0 5 5 7 10 4 6 -4 9
-3 8 2 -4 14 13 53 22 53 5 0 7 7 4 15 -4 8 -1 15 4 15 6 0 14 10 18 23 3 12
13 29 21 39 8 9 16 22 17 30 2 14 38 75 55 95 6 6 6 13 2 15 -5 2 1 10 12 19
22 16 22 16 21 -30 -1 -25 2 -53 7 -62 5 -9 3 -21 -3 -27 -9 -9 -9 -12 0 -12
10 0 10 -5 1 -21 -7 -15 -8 -19 0 -15 7 5 10 -8 8 -39 -2 -26 0 -48 4 -50 3
-3 5 -17 3 -32 -1 -15 3 -31 9 -35 9 -6 9 -8 -1 -8 -7 0 -11 -4 -7 -10 3 -5 8
-44 11 -87 7 -114 12 -162 20 -175 4 -7 3 -8 -4 -4 -9 5 -9 0 -2 -19 13 -34
13 -38 -2 -29 -9 5 -9 2 1 -9 7 -9 10 -17 7 -17 -4 0 -4 -5 0 -12 4 -6 7 -33
7 -60 -1 -32 2 -46 9 -42 7 5 8 2 3 -7 -11 -17 -14 -48 -6 -54 4 -2 6 -24 6
-49 0 -25 5 -46 10 -46 6 0 3 -5 -5 -10 -9 -6 -11 -13 -5 -17 6 -5 10 -27 10
-50 0 -24 3 -43 8 -43 4 0 5 -5 1 -12 -10 -15 -12 -58 -3 -63 6 -4 10 -45 12
-115 0 -19 6 -38 11 -42 7 -5 7 -8 -1 -8 -9 0 -10 -7 -3 -25 6 -15 6 -26 -1
-30 -5 -4 -6 -12 -2 -18 7 -11 8 -21 17 -120 2 -27 6 -51 9 -54 3 -3 2 -16 -3
-29 -6 -14 -6 -24 -1 -24 5 0 8 -8 6 -17 -1 -10 3 -24 9 -32 8 -11 8 -13 -1
-7 -7 4 -13 2 -13 -3 0 -6 5 -11 10 -11 6 0 10 -5 10 -11 0 -5 -5 -7 -11 -3
-8 4 -8 1 -2 -12 5 -11 8 -40 8 -66 -1 -27 3 -48 7 -48 11 0 6 -23 -7 -32 -7
-5 -7 -8 0 -8 9 0 15 -51 18 -147 1 -18 5 -33 10 -33 5 0 4 -6 -2 -13 -6 -8
-8 -16 -5 -20 6 -6 15 -93 15 -144 0 -35 2 -36 58 -34 19 0 38 -5 43 -12 4 -6
8 -7 8 -2 0 7 67 10 198 10 108 -1 202 3 209 7 6 5 14 5 17 -1 4 -6 14 -7 22
-4 9 3 20 0 25 -8 5 -8 9 -9 9 -4 0 7 67 10 198 10 108 -1 202 3 209 7 6 5 14
5 17 -1 4 -6 14 -7 22 -4 9 3 20 0 25 -8 5 -8 9 -9 9 -4 0 7 67 10 198 10 108
-1 202 3 209 7 6 5 14 5 17 -1 4 -6 14 -7 22 -4 9 3 20 0 25 -8 5 -8 9 -9 9
-3 0 7 54 10 161 9 88 0 163 3 165 7 3 5 11 5 17 1 16 -10 297 -10 304 -1 2 5
10 5 16 1 16 -10 297 -10 304 -1 2 5 10 5 16 1 16 -10 297 -10 304 -1 2 5 10
5 16 1 17 -11 529 -11 544 -1 6 5 14 5 17 -1 4 -6 14 -7 22 -4 9 3 20 0 25 -8
5 -8 9 -9 9 -4 0 7 67 10 198 10 108 -1 202 3 209 7 6 5 14 5 17 -1 4 -6 14
-7 22 -4 9 3 20 0 25 -8 5 -8 9 -9 9 -4 0 6 50 10 134 11 84 0 133 -4 129 -10
-4 -5 -1 -6 8 0 38 24 47 16 46 -44 0 -32 2 -63 6 -69 4 -6 4 -14 -1 -17 -9
-5 -9 -47 1 -63 4 -7 4 -14 -1 -17 -9 -5 -9 -47 1 -63 4 -7 4 -14 -1 -17 -9
-5 -9 -47 1 -63 4 -7 4 -14 -1 -17 -9 -5 -9 -47 1 -63 4 -7 4 -14 -1 -17 -9
-5 -9 -47 1 -63 4 -7 4 -14 -1 -17 -9 -5 -9 -47 1 -63 4 -7 4 -14 -1 -17 -9
-5 -9 -47 1 -63 4 -7 4 -14 -1 -17 -9 -5 -9 -47 1 -63 4 -7 4 -14 -1 -17 -9
-5 -9 -47 1 -63 4 -7 4 -14 -1 -17 -9 -5 -9 -47 1 -63 4 -7 4 -14 -1 -17 -9
-5 -9 -47 1 -63 4 -7 4 -14 -1 -17 -9 -5 -9 -47 1 -63 4 -7 4 -14 -1 -17 -10
-6 -8 -48 3 -66 5 -8 5 -15 -1 -17 -5 -2 -8 -20 -7 -41 5 -62 4 -134 -1 -139
-2 -2 0 -18 4 -34 5 -16 5 -31 1 -34 -5 -2 -7 -17 -5 -32 6 -42 6 -134 1 -140
-3 -2 -1 -18 3 -34 5 -16 5 -29 2 -29 -4 0 -6 -17 -5 -38 5 -62 4 -134 -1
-139 -2 -2 0 -18 4 -34 5 -16 5 -31 1 -34 -5 -2 -7 -17 -5 -32 6 -42 6 -134 1
-140 -3 -2 -1 -18 3 -34 5 -16 5 -29 2 -29 -4 0 -6 -17 -5 -38 5 -62 4 -134
-1 -139 -2 -2 0 -18 4 -34 5 -16 5 -31 1 -34 -5 -2 -7 -17 -5 -32 6 -42 6
-134 1 -140 -3 -2 -1 -17 3 -33 4 -16 5 -31 2 -34 -8 -9 -9 -76 0 -76 3 0 3
-13 -2 -29 -4 -16 -6 -32 -2 -35 3 -3 -9 -4 -26 -2 -18 2 -32 -1 -32 -6 0 -5
-5 -6 -12 -2 -17 11 -108 11 -108 1 0 -5 -5 -5 -12 -1 -17 11 -108 11 -108 0
0 -4 -6 -4 -12 1 -7 5 -33 8 -58 6 -25 -2 -49 -4 -55 -3 -177 4 -275 3 -275
-3 0 -5 -5 -5 -12 -1 -17 11 -108 11 -108 1 0 -5 -5 -5 -12 -1 -17 11 -108 11
-108 0 0 -4 -6 -4 -12 1 -7 5 -33 8 -58 6 -25 -2 -49 -4 -55 -3 -158 4 -318 3
-322 -3 -2 -4 -10 -4 -16 0 -15 9 -138 10 -143 1 -2 -3 -17 -3 -32 1 -15 4
-38 6 -52 4 -14 -2 -31 -3 -37 -3 -7 0 -33 0 -58 0 -25 0 -52 0 -60 0 -8 0
-35 0 -60 0 -25 0 -52 0 -60 0 -8 0 -35 0 -60 0 -25 0 -51 0 -57 0 -7 0 -82 1
-166 3 -85 1 -156 -1 -159 -6 -2 -4 -10 -4 -16 0 -16 9 -138 10 -144 0 -2 -4
-10 -4 -16 0 -16 9 -138 10 -144 0 -2 -4 -10 -4 -16 0 -15 9 -138 10 -143 1
-2 -3 -17 -3 -32 1 -15 4 -38 6 -52 4 -14 -2 -31 -3 -37 -3 -7 0 -33 0 -58 0
-25 0 -52 0 -60 0 -8 0 -35 0 -60 0 -25 0 -52 0 -60 0 -8 0 -35 0 -60 0 -25 0
-51 0 -57 0 -7 0 -82 1 -166 3 -85 1 -156 -1 -159 -6 -2 -4 -10 -4 -16 0 -16
9 -138 10 -144 0 -2 -4 -10 -4 -16 0 -16 9 -138 10 -144 0 -2 -4 -10 -4 -16 0
-15 9 -138 10 -143 1 -2 -3 -17 -3 -32 1 -15 4 -38 6 -52 4 -14 -2 -31 -3 -37
-3 -7 0 -33 0 -58 0 -25 0 -52 0 -60 0 -8 0 -35 0 -60 0 -25 0 -52 0 -60 0 -8
0 -35 0 -60 0 -25 0 -51 0 -57 0 -7 0 -82 1 -166 3 -85 1 -156 -1 -159 -6 -2
-4 -10 -4 -16 0 -16 9 -138 10 -144 0 -2 -4 -10 -4 -16 0 -16 9 -138 10 -144
0 -2 -4 -10 -4 -16 0 -15 9 -138 10 -143 1 -2 -3 -17 -3 -32 1 -15 4 -38 6
-52 4 -14 -2 -31 -3 -37 -3 -7 0 -33 0 -58 0 -25 0 -52 0 -60 0 -8 0 -35 0
-60 0 -25 0 -52 0 -60 0 -8 0 -35 0 -60 0 -25 0 -51 0 -57 0 -7 0 -82 1 -166
3 -85 1 -156 -1 -159 -6 -2 -4 -10 -4 -16 0 -16 9 -138 10 -144 0 -2 -4 -9 -5
-14 -1 -16 9 -99 11 -99 2 0 -5 -5 -6 -12 -2 -17 11 -108 11 -108 1 0 -5 -5
-5 -12 -1 -17 11 -108 11 -108 0 0 -4 -6 -4 -12 1 -7 5 -33 8 -58 6 -25 -2
-49 -4 -55 -3 -177 4 -275 3 -275 -3 0 -5 -5 -5 -12 -1 -17 11 -108 11 -108 1
0 -5 -5 -5 -12 -1 -17 11 -108 11 -108 0 0 -5 -6 -4 -12 1 -7 5 -31 8 -53 6
-22 -1 -51 -3 -65 -2 -29 0 -220 -1 -235 -1 -5 -1 -30 1 -55 3 -25 2 -51 -1
-57 -6 -8 -6 -13 -6 -13 0 0 5 -19 8 -42 6 -53 -4 -53 -4 -105 0 -24 2 -43 -1
-43 -6 0 -4 -5 -5 -12 -1 -17 11 -108 11 -108 1 0 -5 -5 -5 -12 -1 -16 10
-269 11 -275 1 -2 -4 -10 -4 -16 0 -15 9 -138 10 -143 1 -2 -3 -17 -3 -32 1
-15 4 -38 6 -52 4 -14 -2 -31 -3 -37 -3 -7 0 -33 0 -58 0 -25 0 -52 0 -60 0
-8 0 -35 0 -60 0 -25 0 -52 0 -60 0 -8 0 -35 0 -60 0 -25 0 -51 0 -57 0 -7 0
-82 1 -166 3 -85 1 -156 -1 -159 -6 -2 -4 -10 -4 -16 0 -15 9 -138 10 -143 1
-3 -4 -15 -3 -28 2 -12 4 -29 5 -36 0 -7 -5 -23 -5 -34 -1 -27 9 -78 7 -93 -2
-7 -5 -13 -4 -13 0 0 5 -19 8 -42 6 -53 -4 -53 -4 -105 0 -24 2 -43 -1 -43 -6
0 -4 -5 -5 -12 -1 -17 11 -108 11 -108 1 0 -5 -5 -5 -12 -1 -17 10 -228 11
-228 1 0 -5 -5 -5 -12 -1 -17 11 -108 11 -108 1 0 -5 -5 -5 -12 -1 -17 11
-108 11 -108 0 0 -4 -6 -4 -12 1 -7 5 -33 8 -58 6 -25 -2 -49 -4 -55 -3 -177
4 -275 3 -275 -3 0 -5 -5 -5 -12 -1 -17 11 -108 11 -108 1 0 -5 -5 -5 -12 -1
-17 11 -108 11 -108 0 0 -4 -6 -4 -12 1 -7 5 -33 8 -58 6 -25 -2 -49 -4 -55
-3 -158 4 -318 3 -322 -3 -2 -4 -10 -4 -16 0 -15 9 -138 10 -143 1 -2 -3 -17
-3 -32 1 -15 4 -38 6 -52 4 -14 -2 -31 -3 -37 -3 -7 0 -33 0 -58 0 -25 0 -52
0 -60 0 -8 0 -35 0 -60 0 -25 0 -52 0 -60 0 -8 0 -35 0 -60 0 -25 0 -51 0 -57
0 -7 0 -82 1 -166 3 -85 1 -156 -1 -159 -6 -2 -4 -10 -4 -16 0 -16 9 -138 10
-144 0 -2 -4 -10 -4 -16 0 -16 9 -138 10 -144 0 -2 -4 -10 -4 -16 0 -15 9
-138 10 -143 1 -2 -3 -17 -3 -32 1 -15 4 -38 6 -52 4 -14 -2 -31 -3 -37 -3 -7
0 -33 0 -58 0 -25 0 -52 0 -60 0 -8 0 -35 0 -60 0 -25 0 -52 0 -60 0 -8 0 -35
0 -60 0 -25 0 -51 0 -57 0 -18 0 -142 7 -148 9 -8 2 -4 2620 4 2628 11 12 96
10 96 -1 0 -7 3 -8 8 -1 10 14 62 15 62 1 0 -7 3 -7 8 -1 4 6 16 10 27 10 11
0 23 -4 27 -10 5 -7 8 -6 8 1 0 11 64 13 76 2 4 -4 12 -4 18 0 18 11 86 9 86
-2 0 -8 3 -8 8 -1 6 10 20 11 40 5 4 -1 12 -1 17 0 34 7 85 5 85 -4 0 -8 3 -8
8 -1 8 12 47 14 58 3 4 -4 12 -4 18 0 18 11 86 9 86 -2 0 -7 3 -8 8 -1 10 14
62 15 62 1 0 -7 3 -7 8 -1 4 6 16 10 27 10 11 0 23 -4 27 -10 5 -7 8 -6 8 1 0
11 74 13 86 2 4 -4 12 -4 18 -1 17 11 56 11 56 1 0 -5 5 -6 12 -2 17 10 58 11
64 2 3 -5 11 -5 17 -1 18 12 87 11 87 -1 0 -8 3 -8 8 -1 6 10 20 11 40 5 4 -1
12 -1 17 0 34 7 85 5 85 -4 0 -8 2 -8 8 0 8 12 51 13 69 1 6 -4 14 -4 17 1 6
10 57 9 74 -2 7 -4 12 -3 12 2 0 12 63 9 72 -3 5 -6 8 -6 8 1 0 11 35 12 46 1
4 -3 12 -3 18 0 18 11 86 10 86 -1 0 -7 3 -8 8 -1 8 12 37 13 48 3 4 -4 12 -4
18 -1 16 10 66 11 72 1 3 -5 11 -5 17 -1 17 11 57 11 57 1 0 -5 5 -6 12 -2 17
10 58 11 64 2 3 -5 11 -5 17 -1 18 12 87 11 87 -1 0 -8 3 -8 8 -1 6 10 20 11
40 5 4 -1 12 -1 17 0 34 7 85 5 85 -4 0 -8 2 -8 8 0 8 12 51 13 69 1 6 -4 14
-4 17 1 6 10 57 9 74 -2 7 -4 12 -3 12 2 0 12 63 9 72 -3 5 -6 8 -6 8 1 0 11
35 12 46 1 4 -3 12 -3 18 0 18 11 86 10 86 -1 0 -8 3 -8 8 -1 4 6 16 11 27 11
11 0 23 -5 27 -11 5 -6 8 -6 8 2 0 6 9 9 20 6 13 -4 22 1 27 13 3 11 9 21 12
24 4 3 19 23 36 45 16 22 33 43 38 46 5 3 8 9 8 13 -3 20 0 26 9 21 6 -3 10 1
10 9 0 9 5 16 10 16 6 0 10 6 10 13 0 7 9 19 19 26 11 8 17 20 14 28 -3 7 -1
13 5 13 11 0 67 81 64 93 -1 4 2 7 7 7 8 0 29 29 83 115 7 11 26 37 41 57 16
21 26 38 22 38 -3 0 1 7 10 16 9 9 32 42 52 73 19 31 41 59 47 63 6 5 7 8 1 8
-6 0 -6 3 0 8 15 10 50 66 47 75 -1 4 5 10 13 13 8 3 12 10 9 15 -3 5 0 9 6 9
6 0 18 16 26 35 8 19 18 35 23 35 4 0 16 18 26 40 10 22 21 40 25 40 4 0 13
14 20 30 7 17 16 30 21 30 5 0 9 7 9 15 0 8 5 15 11 15 5 0 7 5 4 10 -3 6 -1
10 5 10 6 0 9 4 6 8 -3 5 4 14 14 22 10 8 17 17 14 22 -3 4 0 8 6 8 6 0 8 5 5
10 -3 6 1 13 9 16 9 3 13 10 10 15 -3 5 0 9 5 9 6 0 11 6 11 14 0 7 7 19 15
26 8 7 13 15 10 19 -2 4 5 13 15 21 10 8 17 17 14 22 -3 4 0 8 6 8 6 0 8 5 5
10 -3 6 -1 10 4 10 6 0 11 7 11 15 0 9 7 18 15 21 8 4 12 10 9 15 -3 5 2 12
10 15 9 3 14 10 11 14 -3 4 2 13 10 20 8 7 15 18 15 24 0 6 11 23 24 38 14 14
23 28 20 31 -2 2 2 10 11 17 8 7 15 19 15 27 0 7 7 16 15 19 8 4 15 12 15 19
0 7 7 15 15 19 8 3 12 12 9 21 -5 11 -2 14 10 9 9 -3 16 -17 16 -30 0 -13 5
-24 11 -24 6 0 8 -8 4 -19 -3 -10 1 -24 10 -31 13 -11 13 -15 3 -21 -11 -7
-11 -9 0 -9 7 0 10 -4 7 -10 -3 -5 -2 -10 2 -10 8 0 10 -9 16 -65 1 -14 6 -25
10 -25 5 0 6 -4 2 -9 -3 -5 -1 -12 5 -16 5 -3 10 -19 10 -36 0 -16 4 -29 8
-29 4 0 8 -8 9 -17 5 -52 9 -73 14 -73 3 0 6 -6 7 -12 0 -7 8 -40 17 -73 9
-33 17 -66 17 -72 1 -7 5 -13 10 -13 5 0 7 -4 4 -9 -3 -5 1 -27 8 -49 8 -22
12 -43 9 -46 -4 -3 -1 -6 6 -6 7 0 10 -4 7 -9 -3 -5 1 -28 9 -52 9 -24 16 -53
17 -66 2 -13 5 -23 8 -23 3 0 7 -12 8 -27 1 -15 7 -30 12 -33 6 -4 8 -14 5
-22 -4 -9 -1 -19 4 -23 6 -3 9 -11 6 -16 -4 -5 -1 -9 5 -9 6 0 8 -4 5 -10 -3
-5 1 -23 10 -39 17 -34 19 -45 6 -37 -5 3 0 -11 10 -31 11 -21 19 -48 19 -61
0 -13 4 -20 10 -17 6 4 9 -3 6 -17 -2 -13 5 -39 14 -58 10 -19 18 -38 18 -43
1 -22 16 -74 24 -84 5 -7 7 -17 3 -23 -3 -5 -2 -10 4 -10 5 0 8 -9 6 -20 -2
-11 0 -18 4 -15 8 4 17 -28 23 -72 1 -7 6 -13 11 -13 5 0 7 -6 4 -13 -3 -7 1
-21 8 -31 8 -10 11 -24 8 -32 -3 -8 1 -14 8 -14 7 0 10 -3 6 -6 -3 -4 1 -23 9
-43 16 -37 25 -67 26 -88 1 -7 6 -13 11 -13 5 0 7 -7 3 -15 -3 -8 -1 -15 4
-15 6 0 10 -9 10 -20 0 -40 77 -149 94 -133 3 4 6 1 6 -5 0 -7 8 -12 18 -12
10 0 23 -5 30 -12 9 -9 12 -9 12 1 0 11 3 11 17 0 12 -10 15 -11 9 -1 -6 9 -1
12 17 8 13 -2 39 3 57 12 38 18 101 78 92 86 -3 3 0 6 6 6 7 0 12 7 12 15 0 8
5 15 11 15 5 0 7 5 4 10 -3 6 -1 10 6 10 7 0 10 3 7 6 -4 3 5 22 18 42 14 19
27 46 30 59 4 13 10 23 16 23 5 0 7 4 3 9 -3 6 3 14 12 20 14 8 15 10 3 11
-10 0 -11 3 -4 8 17 11 69 119 66 135 -1 4 3 7 10 7 6 0 8 3 5 7 -4 3 0 17 8
30 9 13 13 28 10 33 -4 6 1 7 11 3 13 -5 15 -2 9 15 -4 14 -2 22 5 22 6 0 10
6 8 12 -3 7 1 19 9 26 7 8 11 18 8 23 -4 5 -2 9 3 9 11 0 25 35 25 62 0 9 4
16 10 15 5 -1 11 5 12 13 2 8 11 33 21 55 10 22 17 43 16 48 -1 4 3 7 9 7 5 0
8 4 4 9 -3 5 0 13 6 16 5 4 8 13 5 20 -2 7 2 16 10 19 9 3 12 10 9 16 -3 5 -1
10 6 10 7 0 9 3 6 7 -4 3 -3 11 1 17 5 6 19 37 32 69 12 31 27 57 34 57 6 0 4
5 -4 10 -10 6 -11 10 -2 10 6 0 12 5 12 10 0 6 7 27 17 48 9 20 15 40 15 45
-1 4 3 7 9 7 5 0 8 4 4 9 -3 5 1 16 9 24 8 8 12 17 9 21 -3 3 0 12 7 21 7 8 9
15 4 15 -5 0 -3 4 3 8 7 4 14 19 16 32 2 13 9 26 15 28 6 2 8 10 5 19 -5 12
-3 14 7 8 8 -5 11 -4 7 2 -4 6 0 24 8 39 8 16 15 35 15 42 0 7 4 11 9 7 6 -3
8 3 6 15 -2 11 1 22 6 25 5 4 7 11 4 16 -4 5 -1 9 4 9 6 0 11 5 11 11 0 6 6
25 14 42 22 50 29 71 28 80 -1 4 2 7 7 7 9 0 27 57 23 73 -1 4 2 7 7 7 10 0
37 69 33 83 -1 4 3 7 9 7 5 0 7 4 4 10 -3 6 -1 10 5 10 7 0 10 7 6 15 -3 8 -1
15 4 15 6 0 10 9 10 20 0 11 5 20 11 20 6 0 9 9 6 20 -3 11 -2 20 3 20 4 0 11
10 15 23 4 12 8 25 10 30 1 4 3 12 4 18 0 5 5 7 11 4 6 -3 7 1 4 9 -3 9 -1 16
5 16 6 0 10 3 10 8 -1 4 0 10 1 15 1 4 4 12 5 17 1 6 4 12 5 15 1 3 3 8 5 13
1 4 7 20 13 35 7 16 12 33 12 38 0 5 4 9 10 9 5 0 9 3 9 8 -3 20 2 43 9 38 4
-2 8 4 9 14 1 10 11 37 22 60 11 24 18 47 15 51 -3 5 0 9 5 9 6 0 10 3 9 8 -1
4 6 24 15 46 9 21 17 42 17 47 0 5 4 9 8 9 5 0 9 6 10 13 3 32 10 51 20 55 7
2 9 8 6 13 -3 6 0 16 6 24 6 8 9 19 5 25 -3 5 -2 10 3 10 13 0 33 56 24 66 -4
4 -1 4 6 0 8 -5 12 0 12 13 0 11 5 23 10 26 6 4 8 11 5 16 -4 5 -1 9 5 9 6 0
9 4 6 9 -3 4 3 26 13 47 11 21 17 42 14 46 -2 5 1 8 6 8 6 0 11 9 11 19 0 11
5 23 10 26 6 4 8 11 5 16 -4 5 -2 9 4 9 5 0 8 9 6 20 -2 11 0 18 6 15 8 -6 13
8 10 28 0 4 4 7 11 7 6 0 9 3 5 6 -3 4 0 19 8 34 8 15 11 30 8 33 -3 4 1 9 10
13 9 3 13 12 10 20 -3 8 0 14 7 14 6 0 9 4 6 8 -3 5 1 20 9 35 8 15 12 27 9
27 -3 0 2 10 10 22 9 12 16 30 16 40 0 10 4 18 8 18 4 0 8 10 9 22 1 11 8 25
15 29 7 5 9 9 4 9 -5 0 -3 6 3 13 6 8 8 17 4 20 -3 4 0 7 7 7 7 0 11 3 8 6 -4
3 5 30 18 60 13 30 20 54 16 54 -4 0 -1 4 6 8 7 5 14 17 17 28 3 16 17 51 68
174 5 14 11 31 13 39 1 8 6 17 11 20 4 3 9 15 11 26 2 11 10 33 18 49 8 16 14
35 14 43 0 8 5 11 12 7 7 -4 8 -3 4 5 -4 6 -2 18 4 26 7 8 10 15 6 15 -4 0 2
17 13 39 11 21 17 41 14 45 -3 3 2 8 11 12 9 3 14 10 11 14 -3 5 7 35 21 66
14 32 27 63 28 70 1 7 8 19 15 28 11 13 11 16 0 16 -9 1 -8 5 5 15 11 8 16 15
12 15 -5 0 -3 7 4 15 6 8 9 18 6 24 -3 5 -1 11 6 13 6 2 13 13 14 23 2 11 7
28 12 40 44 96 72 168 68 173 -3 2 2 11 10 19 8 8 12 18 9 23 -3 5 -1 11 5 15
5 3 10 15 10 26 0 10 5 19 10 19 6 0 10 6 10 14 0 7 8 33 19 57 23 54 34 82
35 89 1 3 9 22 19 43 10 21 19 47 20 57 1 11 5 20 10 20 4 0 5 5 2 10 -3 6 -1
10 4 10 6 0 10 3 9 8 -1 4 3 17 10 30 7 12 10 22 6 22 -3 0 -1 7 6 15 6 8 9
18 6 24 -3 5 1 12 10 15 8 3 13 10 9 15 -3 5 -1 12 5 16 6 4 8 10 5 15 -3 5
-1 11 5 15 5 3 10 15 10 25 0 10 6 25 13 32 6 7 14 22 15 33 2 11 8 22 13 23
5 2 7 7 4 12 -3 5 2 16 11 24 8 9 11 16 5 16 -6 0 -11 5 -11 11 0 5 5 7 10 4
6 -3 10 2 10 13 0 10 3 22 8 26 4 4 7 11 7 14 1 4 6 17 13 30 7 12 9 22 5 22
-4 0 -3 4 2 8 6 4 16 25 24 47 7 22 24 64 37 92 13 29 27 65 30 80 4 16 13 37
21 49 7 11 10 24 6 27 -3 4 -1 7 5 7 7 0 12 9 12 20 0 11 6 20 13 20 9 0 8 3
-2 9 -11 7 -10 11 5 20 11 6 15 11 11 11 -4 0 -2 10 5 23 6 12 13 27 14 32 1
6 10 28 20 50 10 22 19 45 20 51 1 6 9 28 18 48 9 20 23 51 31 70 8 19 15 39
15 45 0 6 6 11 13 11 8 0 7 4 -3 10 -9 6 -10 10 -3 10 12 0 39 68 34 85 -1 6
1 6 6 2 4 -5 8 -44 8 -88z m-7393 -2214 c26 1 51 4 54 8 4 4 12 3 17 0 19 -12
58 -12 51 -1 -4 6 3 5 16 -2 18 -10 24 -9 31 1 6 9 12 10 17 4 11 -15 46 -19
36 -4 -5 8 -3 10 7 4 20 -13 60 -15 53 -3 -4 6 3 5 16 -2 18 -10 24 -9 31 1 6
9 12 10 17 4 8 -11 98 -13 108 -2 4 4 12 3 17 0 19 -12 58 -12 51 -1 -4 6 3 5
16 -2 18 -10 24 -9 31 1 6 9 12 10 17 4 8 -11 98 -13 108 -2 4 4 12 3 17 0 19
-12 58 -12 51 -1 -4 6 3 5 16 -2 18 -10 24 -9 31 1 6 9 12 10 17 4 11 -15 46
-19 36 -4 -5 8 -3 10 7 4 20 -13 60 -15 53 -3 -4 6 3 5 16 -2 18 -10 24 -9 31
1 6 9 12 10 17 4 8 -11 98 -13 108 -2 4 4 12 3 17 0 19 -12 58 -12 51 -1 -4 6
3 5 16 -2 18 -10 24 -9 31 1 6 9 12 10 17 4 8 -11 98 -13 108 -2 4 4 12 3 17
0 19 -12 58 -12 51 -1 -4 6 3 5 16 -2 18 -10 24 -9 31 1 6 9 12 10 17 4 11
-15 46 -19 36 -4 -5 8 -3 10 7 4 20 -13 60 -15 53 -3 -4 6 3 5 16 -2 18 -10
24 -9 31 1 6 9 12 10 17 4 8 -11 98 -13 108 -2 4 4 12 3 17 0 19 -12 58 -12
51 -1 -4 6 3 5 16 -2 18 -10 24 -9 31 1 6 9 12 10 17 4 8 -11 98 -13 108 -2 4
4 12 3 17 0 19 -12 58 -12 51 -1 -4 6 3 5 16 -2 18 -10 24 -9 31 1 6 9 12 10
17 4 11 -15 46 -19 36 -4 -5 8 -3 10 7 4 20 -13 60 -15 53 -3 -4 6 3 5 16 -2
18 -10 24 -9 31 1 6 9 12 10 17 4 8 -11 98 -13 108 -2 4 4 12 3 17 0 19 -12
58 -12 51 -1 -4 6 3 5 16 -2 18 -10 24 -9 31 1 6 9 12 10 17 4 8 -11 98 -13
108 -2 4 4 12 3 17 0 19 -12 58 -12 51 -1 -4 6 3 5 16 -2 18 -10 24 -9 31 1 6
9 12 10 17 4 11 -15 46 -19 36 -4 -5 8 -3 10 7 4 20 -13 60 -15 53 -3 -4 6 3
5 16 -2 18 -10 24 -9 31 1 6 9 12 10 17 4 8 -11 98 -13 108 -2 4 4 12 3 17 0
19 -12 58 -12 51 -1 -4 6 3 5 16 -2 18 -10 24 -9 31 1 6 9 12 10 17 4 8 -11
98 -13 108 -2 4 4 12 3 17 0 19 -12 58 -12 51 -1 -4 6 3 5 16 -2 18 -10 24 -9
31 1 6 9 12 10 17 4 11 -15 46 -19 36 -4 -5 8 -3 10 7 4 20 -13 60 -15 53 -3
-4 6 3 5 16 -2 18 -10 24 -9 31 1 6 9 12 10 17 4 8 -11 98 -13 108 -2 4 4 12
3 17 0 19 -12 58 -12 51 -1 -4 6 3 5 16 -2 18 -10 24 -9 31 1 6 9 12 10 17 4
8 -11 98 -13 108 -2 4 4 12 3 17 0 19 -12 58 -12 51 -1 -4 6 3 5 16 -2 18 -10
24 -9 31 1 6 9 12 10 17 4 11 -15 46 -19 36 -4 -5 8 -3 10 7 4 20 -13 60 -15
53 -3 -4 6 3 5 16 -2 18 -10 24 -9 31 1 6 9 12 10 17 4 8 -11 98 -13 108 -2 4
4 12 3 17 0 19 -12 58 -12 51 -1 -4 6 3 5 16 -2 18 -10 24 -9 31 1 6 9 12 10
17 4 8 -11 98 -13 108 -2 4 4 12 3 17 0 19 -12 58 -12 51 -1 -4 6 3 5 16 -2
18 -10 24 -9 31 1 6 9 12 10 17 4 8 -11 98 -13 108 -2 4 4 12 3 17 0 19 -12
58 -12 51 -1 -4 6 3 5 16 -2 18 -10 24 -9 32 1 6 8 11 10 14 4 4 -11 180 -12
191 -2 3 4 11 3 16 0 19 -12 58 -12 51 -1 -4 6 3 5 16 -2 18 -10 24 -9 31 1 6
9 12 10 17 4 9 -12 143 -14 135 -2 -3 5 5 4 17 -3 18 -9 24 -9 30 0 5 9 9 9
14 1 4 -6 12 -11 17 -11 6 0 7 5 3 11 -4 7 1 7 16 -1 18 -9 24 -9 30 0 5 9 9
9 14 1 4 -6 12 -11 17 -11 6 0 7 5 3 11 -4 7 1 7 16 -1 18 -9 24 -9 30 0 5 9
9 9 14 1 4 -6 12 -11 17 -11 6 0 7 5 3 11 -4 7 1 7 16 -1 18 -9 24 -9 30 0 5
8 13 9 21 4 20 -12 60 -14 53 -2 -4 6 3 5 16 -2 18 -10 24 -9 31 1 6 9 12 10
17 4 8 -11 98 -13 108 -2 4 4 12 3 17 0 19 -12 58 -12 51 -1 -4 6 3 5 16 -2
18 -10 24 -9 31 1 6 10 11 11 17 3 4 -6 14 -10 23 -9 28 5 43 -10 26 -26 -7
-8 -13 -22 -11 -32 1 -9 -1 -17 -6 -17 -8 0 -25 -48 -22 -62 1 -5 -2 -8 -6 -8
-4 0 -16 -26 -27 -57 -10 -32 -25 -67 -32 -78 -7 -11 -13 -28 -13 -38 0 -10
-7 -25 -15 -33 -8 -9 -15 -25 -15 -37 0 -12 -9 -33 -19 -46 -10 -14 -17 -31
-14 -38 3 -7 0 -13 -6 -13 -6 0 -10 -3 -9 -7 3 -14 -14 -63 -21 -63 -7 0 -11
-15 -12 -53 0 -9 -4 -15 -8 -12 -9 5 -24 -32 -22 -52 1 -7 -3 -13 -9 -13 -6 0
-9 -4 -5 -9 3 -5 -2 -17 -11 -25 -8 -9 -12 -16 -8 -16 3 0 0 -8 -7 -17 -8 -9
-9 -14 -2 -10 6 4 3 -10 -7 -30 -23 -45 -54 -116 -55 -123 0 -3 -4 -11 -8 -17
-5 -7 -5 -17 -2 -23 3 -5 1 -10 -5 -10 -7 0 -10 -7 -6 -15 3 -9 0 -15 -9 -15
-9 0 -12 -6 -9 -15 4 -8 2 -15 -3 -15 -5 0 -10 -10 -10 -22 -1 -13 -7 -24 -14
-27 -8 -2 -7 -6 2 -12 11 -7 10 -9 -3 -9 -11 0 -16 -6 -13 -20 2 -11 0 -20 -4
-20 -8 0 -16 -18 -26 -56 -1 -5 -15 -36 -29 -68 -15 -32 -25 -61 -22 -63 3 -3
-1 -12 -9 -20 -8 -8 -15 -23 -15 -34 0 -10 -5 -19 -11 -19 -5 0 -7 -4 -4 -10
3 -5 2 -10 -4 -10 -6 0 -8 -7 -5 -15 4 -8 2 -15 -3 -15 -5 0 -10 -6 -10 -12 0
-7 -10 -33 -21 -57 -12 -25 -20 -46 -17 -49 2 -2 -3 -11 -11 -19 -8 -8 -12
-19 -9 -24 4 -5 1 -9 -4 -9 -6 0 -10 -3 -9 -7 3 -9 -18 -67 -38 -105 -8 -14
-14 -33 -14 -42 0 -9 -5 -16 -12 -16 -6 0 -8 -3 -5 -6 3 -4 1 -16 -5 -28 -7
-11 -11 -24 -10 -28 1 -5 -3 -8 -9 -8 -5 0 -8 -4 -5 -9 4 -5 -1 -22 -9 -38
-20 -36 -39 -86 -37 -95 1 -5 -3 -8 -8 -8 -5 0 -9 -3 -8 -7 1 -5 -4 -19 -12
-33 -7 -14 -13 -27 -12 -30 4 -11 -10 -40 -19 -40 -6 0 -7 -4 -4 -10 3 -5 -2
-21 -11 -35 -9 -14 -13 -25 -9 -25 5 0 0 -10 -11 -22 -10 -12 -13 -18 -7 -14
9 5 11 2 7 -8 -3 -9 -11 -16 -16 -16 -6 0 -7 -7 -4 -16 3 -8 2 -12 -4 -9 -6 3
-10 -1 -10 -10 0 -8 -7 -32 -17 -53 -9 -20 -15 -40 -15 -44 1 -5 -3 -8 -8 -8
-5 0 -9 -3 -8 -7 3 -17 -15 -63 -25 -63 -6 0 -7 -3 -4 -6 3 -4 1 -16 -5 -28
-7 -11 -13 -24 -14 -28 -1 -5 -3 -11 -4 -15 -1 -5 -2 -11 -1 -15 0 -5 -4 -8
-11 -8 -6 0 -8 -3 -5 -7 4 -3 0 -17 -8 -29 -8 -13 -16 -33 -18 -44 -2 -12 -9
-25 -16 -29 -7 -5 -12 -11 -12 -15 2 -11 -12 -61 -18 -66 -11 -9 -33 -52 -23
-47 5 4 -1 -13 -12 -37 -12 -24 -24 -42 -28 -40 -3 2 -4 -5 -1 -16 3 -11 0
-20 -6 -20 -6 0 -10 -3 -9 -7 1 -5 -4 -21 -10 -36 -7 -16 -12 -33 -12 -38 0
-5 -4 -9 -9 -9 -5 0 -12 -16 -15 -35 -4 -19 -12 -35 -18 -35 -5 0 -8 -7 -4
-15 3 -8 -2 -19 -12 -24 -9 -6 -13 -11 -8 -11 4 0 1 -11 -8 -25 -9 -14 -13
-25 -10 -25 4 0 -1 -10 -12 -22 -13 -14 -14 -19 -4 -14 12 6 12 5 -1 -6 -9 -7
-14 -18 -12 -24 2 -7 -2 -18 -9 -26 -7 -7 -14 -20 -16 -28 -2 -8 -8 -18 -14
-21 -5 -3 -9 -10 -9 -15 1 -17 -12 -48 -27 -64 -14 -13 -15 -13 -10 7 3 12 2
23 -4 25 -5 2 -10 10 -11 18 -2 8 -6 21 -11 28 -4 7 -5 16 -2 19 3 4 -1 17 -9
30 -10 14 -11 23 -5 23 7 0 4 7 -4 16 -9 8 -14 19 -11 24 3 5 1 10 -4 12 -5 1
-11 17 -13 33 -2 17 -9 39 -15 50 -6 11 -9 28 -8 38 2 9 -1 17 -6 17 -5 0 -9
10 -9 23 0 13 -3 27 -7 31 -7 6 -12 25 -17 58 -1 10 -5 21 -9 24 -4 4 -7 16
-7 26 0 10 -4 18 -8 18 -4 0 -8 8 -9 18 -3 37 -10 68 -20 87 -6 11 -8 26 -6
33 3 6 1 12 -4 12 -5 0 -10 8 -11 18 -2 21 -10 57 -12 57 -1 0 -3 11 -6 24 -2
14 -8 29 -13 35 -4 6 -7 21 -6 34 1 12 -3 22 -8 22 -6 0 -8 3 -5 6 4 3 1 20
-7 37 -7 18 -10 38 -8 45 3 6 -1 12 -8 12 -7 0 -10 3 -6 6 3 3 0 26 -8 50 -7
24 -11 44 -8 44 3 0 0 6 -6 14 -6 8 -11 18 -10 22 1 5 0 11 -1 14 -3 10 -11
45 -12 58 -1 6 -4 12 -8 12 -3 0 -7 8 -8 18 -3 32 -7 47 -16 61 -7 11 -6 12 5
6 12 -7 12 -6 1 7 -12 15 -23 47 -24 76 -1 6 -5 12 -10 12 -5 0 -6 5 -3 10 3
6 0 10 -7 10 -11 0 -11 2 0 9 11 7 11 11 -2 23 -8 9 -12 18 -9 22 3 3 0 12 -7
21 -7 8 -9 15 -5 15 4 0 1 8 -6 17 -12 15 -12 16 1 8 13 -8 13 -7 0 9 -13 17
-20 35 -22 63 -1 7 -7 14 -14 17 -8 3 -11 12 -8 21 3 8 1 15 -5 15 -6 0 -11 7
-11 15 0 9 -9 25 -20 37 -11 12 -20 28 -20 35 0 8 -4 11 -10 8 -5 -3 -10 1
-10 9 0 9 -7 16 -16 16 -8 0 -13 4 -10 9 3 5 -8 14 -24 21 -17 7 -30 16 -30
21 0 5 -7 6 -15 3 -8 -4 -15 -1 -15 6 0 6 -5 8 -10 5 -6 -4 -17 -2 -25 5 -9 8
-15 8 -20 0 -5 -8 -10 -8 -20 0 -8 7 -15 7 -19 1 -3 -5 -14 -8 -23 -7 -9 2
-28 -3 -42 -10 -13 -7 -29 -10 -34 -7 -6 3 -7 1 -3 -5 3 -6 -7 -16 -24 -24
-17 -7 -33 -21 -36 -30 -3 -10 -10 -17 -16 -15 -6 1 -17 -8 -23 -21 -7 -13
-15 -23 -19 -23 -3 1 -6 -2 -5 -5 0 -3 -13 -19 -30 -35 -17 -16 -27 -29 -23
-29 4 0 -2 -7 -12 -15 -11 -8 -17 -15 -13 -15 5 0 -4 -12 -18 -27 -14 -15 -25
-33 -25 -40 0 -6 -8 -18 -17 -25 -10 -7 -19 -20 -21 -28 -2 -8 -8 -17 -13 -18
-5 -2 -7 -8 -3 -13 3 -5 0 -9 -7 -9 -7 0 -10 -3 -7 -6 4 -3 -2 -14 -13 -25
-10 -10 -19 -26 -19 -35 0 -8 -4 -12 -10 -9 -5 3 -12 -6 -16 -20 -3 -14 -10
-25 -16 -25 -5 0 -6 -4 -3 -10 3 -5 1 -10 -4 -10 -6 0 -11 -7 -11 -15 0 -8 -4
-15 -10 -15 -5 0 -10 -5 -10 -11 0 -6 -7 -17 -15 -26 -8 -8 -13 -19 -10 -24 4
-5 2 -9 -4 -9 -6 0 -18 -16 -27 -35 -9 -19 -21 -32 -27 -28 -5 3 -7 1 -3 -5 3
-6 0 -17 -8 -24 -7 -8 -17 -24 -20 -36 -4 -12 -12 -22 -17 -22 -6 0 -15 -13
-20 -30 -6 -16 -15 -30 -21 -30 -5 0 -6 -4 -3 -10 3 -5 1 -10 -5 -10 -6 0 -8
-4 -5 -10 3 -5 2 -10 -3 -10 -5 0 -17 -16 -28 -35 -10 -19 -22 -35 -27 -35 -4
0 -5 -4 -2 -10 3 -5 1 -10 -4 -10 -6 0 -11 -6 -11 -14 0 -8 -3 -16 -7 -18 -10
-4 -85 -118 -78 -118 3 0 -4 -9 -15 -20 -12 -12 -18 -26 -14 -33 4 -7 4 -9 0
-5 -10 8 -36 -14 -29 -24 2 -5 -1 -8 -7 -8 -6 0 -9 -4 -6 -8 3 -5 -6 -20 -19
-34 -13 -14 -21 -29 -18 -32 4 -3 1 -6 -6 -6 -7 0 -9 -5 -5 -12 5 -8 2 -9 -12
-4 -10 4 -15 4 -11 0 4 -4 0 -18 -8 -31 -9 -13 -13 -23 -11 -23 3 0 -6 -12
-19 -26 -13 -14 -27 -35 -30 -45 -4 -11 -11 -19 -16 -19 -5 0 -9 -7 -9 -15 0
-8 -4 -15 -10 -15 -5 0 -10 -6 -10 -14 0 -8 -8 -21 -19 -28 -10 -7 -19 -17
-20 -23 0 -5 -8 -18 -16 -27 -8 -10 -12 -18 -10 -18 6 0 -8 -19 -41 -55 -12
-13 -19 -26 -16 -29 3 -3 0 -6 -7 -6 -7 0 -10 -4 -7 -8 3 -5 -4 -15 -15 -22
-10 -8 -19 -19 -19 -25 0 -6 -9 -16 -20 -23 -16 -10 -20 -10 -21 0 0 9 -2 9
-6 -1 -5 -11 -7 -11 -15 0 -8 11 -11 11 -15 1 -4 -10 -8 -10 -19 -1 -11 9 -14
9 -14 0 0 -7 -5 -9 -11 -6 -14 9 -219 12 -219 3 0 -4 -6 -5 -14 -2 -24 9 -206
9 -206 0 0 -5 -7 -3 -15 4 -11 9 -15 9 -15 1 0 -7 -5 -9 -11 -6 -14 9 -219 12
-219 3 0 -4 -6 -5 -14 -2 -24 9 -206 9 -206 0 0 -5 -7 -3 -15 4 -11 9 -15 9
-15 1 0 -7 -5 -9 -11 -6 -14 9 -219 12 -219 3 0 -4 -6 -5 -14 -2 -24 9 -206 9
-206 0 0 -5 -7 -3 -15 4 -11 9 -15 9 -15 1 0 -7 -5 -9 -11 -5 -7 4 -68 6 -138
6 -88 -1 -127 2 -133 11 -6 9 -8 8 -8 -3 0 -13 -14 -14 -85 -10 -53 3 -85 1
-86 -5 0 -7 -2 -7 -5 0 -2 6 -30 9 -65 7 -44 -3 -64 0 -70 10 -7 10 -9 10 -9
-2 0 -13 -14 -14 -85 -10 -53 3 -85 1 -86 -5 0 -7 -2 -7 -5 0 -2 6 -30 9 -65
7 -44 -3 -64 0 -70 10 -7 10 -9 10 -9 -3 0 -11 -8 -15 -27 -12 -16 2 -61 4
-102 6 l-74 2 -1 1665 c-1 1561 1 1711 24 1681 3 -3 26 -6 52 -6z m7865 -1
c14 -2 21 1 17 8 -4 6 3 5 16 -2 18 -10 24 -9 31 1 6 9 12 10 17 4 8 -11 98
-13 108 -2 4 4 12 3 17 0 19 -12 58 -12 51 -1 -4 6 3 5 16 -2 18 -10 24 -9 31
1 6 9 12 10 17 4 10 -14 65 -17 56 -4 -4 7 3 6 16 -1 18 -9 24 -9 30 0 5 9 9
9 14 1 4 -6 12 -11 17 -11 6 0 7 5 3 11 -4 7 1 7 16 -1 18 -9 24 -9 30 0 5 9
9 9 14 1 4 -6 12 -11 17 -11 6 0 7 5 3 11 -4 7 1 7 16 -1 18 -9 24 -9 30 0 5
9 9 9 14 1 4 -6 12 -11 17 -11 6 0 7 5 3 11 -4 7 2 6 17 -1 17 -10 24 -10 27
-1 2 6 8 8 14 5 15 -10 69 -11 74 -2 3 5 11 5 17 1 19 -11 58 -13 51 -1 -4 6
3 5 16 -2 18 -10 24 -9 32 1 6 8 11 10 14 4 4 -11 180 -12 191 -2 3 4 11 3 16
0 19 -12 58 -12 51 -1 -4 6 3 5 16 -2 18 -10 24 -9 31 1 6 9 12 10 17 4 9 -12
143 -14 135 -2 -3 5 5 4 17 -3 18 -9 24 -9 30 0 5 9 9 9 14 1 4 -6 12 -11 17
-11 6 0 7 5 3 11 -4 7 1 7 16 -1 18 -9 24 -9 30 0 5 9 9 9 14 1 4 -6 12 -11
17 -11 6 0 7 5 3 11 -4 7 1 7 16 -1 18 -9 24 -9 30 0 5 9 9 9 14 1 4 -6 12
-11 17 -11 6 0 7 5 3 11 -4 7 1 7 16 -1 18 -9 24 -9 30 0 5 8 13 9 21 4 20
-12 60 -14 53 -2 -4 6 3 5 16 -2 18 -10 24 -9 31 1 6 9 12 10 17 4 8 -11 98
-13 108 -2 4 4 12 3 17 0 19 -12 58 -12 51 -1 -4 6 3 5 16 -2 18 -10 24 -9 31
1 6 9 12 10 17 4 8 -11 98 -13 108 -2 4 4 12 3 17 0 19 -12 58 -12 51 -1 -4 6
3 5 16 -2 18 -10 24 -9 31 1 6 9 12 10 17 4 10 -14 65 -17 56 -4 -4 7 3 6 16
-1 18 -9 24 -9 30 0 5 9 9 9 14 1 4 -6 12 -11 17 -11 6 0 7 5 3 11 -4 7 1 7
16 -1 18 -9 24 -9 30 0 5 9 9 9 14 1 4 -6 12 -11 17 -11 6 0 7 5 3 11 -4 7 1
7 16 -1 18 -9 24 -9 30 0 5 9 9 9 14 1 4 -6 12 -11 17 -11 6 0 7 5 3 11 -4 7
2 6 17 -1 17 -10 24 -10 27 -1 2 6 8 8 14 5 15 -10 69 -11 74 -2 3 5 11 5 17
1 19 -11 58 -13 51 -1 -4 6 3 5 16 -2 18 -10 24 -9 32 1 6 8 11 10 14 4 4 -11
180 -12 191 -2 3 4 11 3 16 0 19 -12 58 -12 51 -1 -4 6 3 5 16 -2 18 -10 24
-9 31 1 6 9 12 10 17 4 9 -12 143 -14 135 -2 -3 5 5 4 17 -3 18 -9 24 -9 30 0
5 9 9 9 14 1 4 -6 12 -11 17 -11 6 0 7 5 3 11 -4 7 1 7 16 -1 18 -9 24 -9 30
0 5 9 9 9 14 1 4 -6 12 -11 17 -11 6 0 7 5 3 11 -4 7 1 7 16 -1 18 -9 24 -9
30 0 5 9 9 9 14 1 4 -6 12 -11 17 -11 6 0 7 5 3 11 -4 7 1 7 16 -1 18 -9 24
-9 30 0 5 8 13 9 21 4 20 -12 60 -14 53 -2 -4 6 3 5 16 -2 18 -10 24 -9 31 1
6 9 12 10 17 4 8 -11 98 -13 108 -2 4 4 12 3 17 0 19 -12 58 -12 51 -1 -4 6 3
5 16 -2 18 -10 24 -9 31 1 6 9 12 10 17 4 8 -11 98 -13 108 -2 4 4 12 3 17 0
19 -12 58 -12 51 -1 -4 6 3 5 16 -2 18 -10 24 -9 31 1 6 9 12 10 17 4 10 -14
65 -17 56 -4 -4 7 3 6 16 -1 18 -9 24 -9 30 0 5 9 9 9 14 1 4 -6 12 -11 17
-11 6 0 7 5 3 11 -4 7 1 7 16 -1 18 -9 24 -9 30 0 5 9 9 9 14 1 4 -6 12 -11
17 -11 6 0 7 5 3 11 -4 7 1 7 16 -1 18 -9 24 -9 30 0 5 9 9 9 14 1 4 -6 12
-11 17 -11 6 0 7 5 3 11 -4 7 2 6 17 -1 17 -10 24 -10 27 -1 2 6 8 8 14 5 15
-10 69 -11 74 -2 3 5 11 5 17 1 19 -11 58 -13 51 -1 -4 6 3 5 16 -2 18 -10 24
-9 32 1 6 8 11 10 14 4 4 -11 180 -12 191 -2 3 4 11 3 16 0 19 -12 58 -12 51
-1 -4 6 3 5 16 -2 18 -10 24 -9 31 1 6 9 12 10 17 4 9 -12 143 -14 135 -2 -3
5 5 4 17 -3 18 -9 24 -9 30 0 5 9 9 9 14 1 4 -6 12 -11 17 -11 6 0 7 5 3 11
-4 7 1 7 16 -1 18 -9 24 -9 30 0 5 9 9 9 14 1 4 -6 12 -11 17 -11 6 0 7 5 3
11 -4 7 1 7 16 -1 18 -9 24 -9 30 0 5 9 9 9 14 1 4 -6 12 -11 17 -11 6 0 7 5
3 11 -4 7 1 7 16 -1 18 -9 24 -9 30 0 5 8 13 9 21 4 20 -12 60 -14 53 -2 -4 6
3 5 16 -2 18 -10 24 -9 31 1 6 9 12 10 17 4 4 -6 39 -10 77 -10 l70 0 0 -35
c0 -19 4 -40 8 -47 4 -6 4 -14 -1 -17 -9 -5 -9 -47 1 -63 4 -7 4 -14 -1 -17
-9 -5 -9 -47 1 -63 4 -7 4 -14 -1 -17 -9 -5 -9 -47 1 -63 4 -7 4 -14 -1 -17
-9 -5 -9 -47 1 -63 4 -7 4 -14 -1 -17 -9 -5 -9 -47 1 -63 4 -7 4 -14 -1 -17
-9 -5 -9 -47 1 -63 4 -7 4 -14 -1 -17 -9 -5 -9 -47 1 -63 4 -7 4 -14 -1 -17
-9 -5 -9 -47 1 -63 4 -7 4 -14 -1 -17 -9 -5 -9 -47 1 -63 4 -7 4 -14 -1 -17
-10 -6 -8 -48 3 -66 5 -8 5 -15 -1 -17 -5 -2 -8 -20 -7 -41 5 -62 4 -134 -1
-139 -2 -2 0 -18 4 -34 5 -16 5 -31 1 -34 -5 -2 -7 -17 -5 -32 6 -42 6 -134 1
-140 -3 -2 -1 -18 3 -34 5 -16 5 -29 2 -29 -4 0 -6 -17 -5 -37 5 -63 4 -135
-1 -140 -2 -2 0 -18 4 -34 5 -16 5 -31 1 -34 -5 -2 -7 -17 -5 -32 6 -42 6
-134 1 -140 -3 -2 -1 -18 3 -34 5 -16 5 -29 2 -29 -4 0 -6 -17 -5 -37 5 -63 4
-135 -1 -140 -2 -2 0 -18 4 -34 5 -16 5 -31 1 -34 -5 -2 -7 -17 -5 -32 6 -42
6 -134 1 -140 -3 -2 -1 -18 3 -34 5 -16 5 -29 2 -29 -4 0 -6 -17 -5 -37 5 -63
4 -135 -1 -140 -2 -2 0 -18 4 -34 5 -16 5 -31 1 -34 -5 -2 -7 -17 -5 -32 6
-42 6 -134 1 -140 -3 -2 -1 -18 3 -34 5 -16 5 -29 2 -29 -4 0 -6 -17 -5 -37 5
-63 4 -135 -1 -140 -2 -2 0 -17 4 -33 4 -16 6 -31 2 -34 -10 -11 -7 -116 3
-116 6 0 1 -7 -9 -15 -10 -8 -22 -12 -27 -10 -4 3 -10 1 -14 -5 -4 -6 -13 -7
-23 -2 -21 10 -62 9 -79 -1 -7 -5 -13 -4 -13 0 0 5 -11 9 -25 9 -14 0 -25 -5
-25 -10 0 -8 -3 -8 -8 -1 -4 6 -34 10 -67 10 -33 0 -63 -4 -67 -10 -5 -7 -8
-7 -8 0 0 14 -112 13 -122 0 -5 -7 -8 -7 -8 0 0 6 -16 10 -35 11 -20 0 -32 -3
-28 -9 4 -6 1 -7 -8 -2 -20 13 -49 13 -49 1 0 -7 -3 -8 -8 -1 -9 14 -95 13
-104 0 -5 -7 -8 -7 -8 0 0 6 -9 11 -20 12 -13 1 -18 -2 -14 -9 5 -7 2 -8 -7
-2 -19 12 -51 12 -66 1 -8 -6 -13 -6 -13 0 0 11 -79 11 -97 0 -7 -5 -13 -4
-13 1 0 12 -43 10 -52 -3 -5 -7 -8 -6 -8 1 0 12 -69 12 -88 0 -7 -4 -12 -3
-12 1 0 5 -11 9 -25 9 -14 0 -25 -5 -25 -10 0 -8 -3 -8 -8 -1 -9 14 -95 13
-104 0 -5 -7 -8 -7 -8 0 0 6 -16 10 -35 11 -20 0 -32 -3 -28 -9 4 -6 1 -7 -8
-2 -20 13 -49 13 -49 1 0 -7 -3 -8 -8 -1 -9 14 -95 13 -104 0 -5 -7 -8 -6 -8
1 0 13 -62 13 -72 -1 -5 -7 -8 -7 -8 0 0 6 -16 10 -35 11 -20 0 -32 -3 -28 -9
4 -6 1 -7 -7 -2 -19 11 -60 13 -67 2 -2 -4 -10 -4 -16 1 -13 11 -62 10 -73 -1
-4 -3 -12 -3 -18 0 -18 11 -66 10 -66 -1 0 -7 -3 -8 -8 -1 -10 14 -74 16 -65
2 4 -6 1 -7 -8 -2 -20 13 -49 13 -49 1 0 -7 -3 -8 -8 -1 -9 14 -95 13 -104 0
-5 -7 -8 -6 -8 1 0 13 -62 13 -72 -1 -5 -7 -8 -7 -8 0 0 6 -16 10 -35 11 -20
0 -32 -3 -28 -9 4 -6 1 -7 -7 -2 -19 11 -60 13 -67 2 -2 -4 -10 -4 -16 1 -13
11 -62 10 -73 -1 -4 -3 -11 -4 -17 0 -18 11 -97 10 -97 -1 0 -8 -3 -8 -8 -1
-9 14 -115 13 -124 0 -5 -7 -8 -7 -8 0 0 6 -16 10 -35 11 -20 0 -32 -3 -28 -9
4 -6 1 -7 -8 -2 -20 13 -49 13 -49 1 0 -7 -3 -8 -8 -1 -9 14 -95 13 -104 0 -5
-7 -8 -7 -8 0 0 6 -9 11 -20 12 -13 1 -18 -2 -14 -9 5 -7 2 -8 -7 -2 -19 12
-51 12 -66 1 -8 -6 -13 -6 -13 0 0 11 -79 11 -97 0 -7 -5 -13 -4 -13 1 0 12
-43 10 -52 -3 -5 -7 -8 -6 -8 1 0 12 -69 12 -88 0 -7 -4 -12 -3 -12 1 0 5 -11
9 -25 9 -14 0 -25 -5 -25 -10 0 -8 -3 -8 -8 -1 -4 6 -34 10 -67 10 -33 0 -63
-4 -67 -10 -5 -7 -8 -7 -8 0 0 14 -112 13 -122 0 -5 -7 -8 -7 -8 0 0 6 -16 10
-35 11 -20 0 -32 -3 -28 -9 4 -6 1 -7 -8 -2 -20 13 -49 13 -49 1 0 -7 -3 -8
-8 -1 -9 12 -102 14 -102 2 0 -5 -6 -2 -14 6 -8 7 -14 30 -14 50 0 19 -3 40
-7 46 -3 6 -1 11 6 11 7 0 8 4 2 13 -5 6 -9 19 -8 27 1 8 -3 23 -8 34 -7 13
-6 16 3 11 9 -6 9 -3 1 13 -8 14 -8 23 -1 27 8 5 7 11 0 20 -7 8 -9 19 -6 24
4 5 2 13 -4 16 -8 5 -7 11 1 21 6 8 7 14 3 14 -5 0 -9 23 -8 50 0 29 -4 50
-10 50 -6 0 -4 5 4 10 8 5 10 10 5 10 -6 0 -12 25 -12 58 -2 52 -7 116 -17
212 -2 19 1 41 7 48 6 7 6 12 1 11 -21 -4 -26 2 -14 16 7 8 8 15 3 15 -5 0 -8
17 -7 38 1 20 -3 43 -9 50 -6 8 -6 12 1 12 6 0 9 8 7 18 -2 9 -4 17 -5 17 -2
0 -6 52 -14 165 -2 30 -5 55 -6 55 -1 0 -3 23 -5 50 -2 28 -4 50 -5 50 -1 0
-3 36 -5 80 -2 44 -4 80 -5 80 -1 0 -3 20 -5 45 -1 25 -4 63 -6 85 -1 22 1 47
6 54 5 9 4 12 -2 8 -6 -4 -13 0 -17 8 -3 8 -1 15 5 15 6 0 7 5 3 12 -4 6 -8
34 -10 62 -7 131 -13 196 -19 206 -3 5 -1 10 6 10 8 0 8 4 -1 15 -7 8 -10 21
-7 28 3 8 1 20 -3 28 -5 8 -4 19 2 26 6 8 7 13 1 13 -6 0 -9 13 -7 30 2 16 -1
32 -7 35 -7 5 -6 12 2 21 9 11 9 14 -1 14 -9 0 -10 3 -1 13 6 8 8 17 5 20 -7
6 -9 28 -18 152 -7 89 -16 138 -31 160 -20 31 -55 69 -55 60 0 -5 -7 0 -16 11
-8 10 -12 12 -8 4 6 -13 5 -13 -12 1 -10 8 -26 15 -34 14 -8 -1 -27 2 -42 6
-15 4 -30 3 -34 -2 -3 -5 -10 -7 -15 -4 -5 4 -9 1 -9 -5 0 -7 -6 -10 -14 -7
-7 3 -21 -4 -30 -14 -9 -11 -22 -17 -29 -13 -6 4 -9 4 -6 0 8 -8 -62 -81 -74
-78 -5 1 -6 -2 -3 -7 3 -5 -7 -24 -23 -42 -16 -18 -27 -37 -25 -41 3 -5 -2
-11 -10 -14 -9 -3 -13 -10 -10 -15 3 -5 0 -9 -5 -9 -6 0 -11 -7 -11 -15 0 -8
-4 -15 -10 -15 -5 0 -10 -7 -10 -15 0 -8 -5 -15 -11 -15 -5 0 -8 -4 -5 -9 3
-5 -1 -12 -10 -15 -8 -3 -12 -10 -9 -16 3 -5 1 -10 -4 -10 -6 0 -11 -6 -11
-13 0 -7 -8 -22 -18 -33 -10 -10 -19 -23 -20 -29 -6 -30 -15 -45 -24 -45 -6 0
-8 -3 -5 -7 4 -3 -1 -12 -11 -20 -9 -8 -11 -12 -4 -8 7 3 1 -10 -13 -31 -14
-20 -25 -41 -25 -46 0 -5 -5 -6 -12 -2 -6 4 -8 3 -5 -3 7 -11 -14 -63 -25 -63
-5 0 -8 -6 -8 -14 0 -8 -7 -21 -15 -30 -9 -8 -16 -18 -15 -21 1 -21 -1 -25
-11 -20 -6 4 -10 1 -9 -6 3 -22 -11 -59 -22 -59 -6 0 -7 -7 -4 -16 3 -8 2 -13
-3 -10 -7 5 -20 -12 -26 -34 0 -3 -9 -21 -20 -40 -11 -19 -18 -38 -17 -42 1
-5 -3 -8 -9 -8 -5 0 -7 -4 -4 -10 3 -5 1 -10 -4 -10 -6 0 -11 -7 -11 -15 0 -8
-5 -15 -10 -15 -6 0 -9 -3 -9 -7 2 -13 -25 -73 -32 -73 -4 0 -10 -13 -14 -30
-4 -16 -10 -30 -15 -30 -6 0 -21 -36 -19 -49 0 -2 -4 -7 -9 -10 -5 -3 -21 -32
-36 -63 -14 -32 -30 -58 -36 -58 -6 0 -10 -6 -8 -12 1 -7 -11 -38 -27 -68 -16
-30 -28 -58 -27 -62 1 -5 -2 -8 -7 -8 -8 0 -24 -37 -22 -52 1 -5 -3 -8 -7 -8
-5 0 -14 -16 -22 -35 -8 -19 -18 -35 -22 -35 -5 0 -6 -4 -3 -10 3 -5 1 -10 -5
-10 -6 0 -9 -4 -5 -9 3 -5 0 -15 -7 -23 -7 -7 -14 -20 -16 -28 -2 -8 -9 -18
-15 -22 -7 -4 -8 -8 -3 -8 5 0 3 -6 -3 -13 -6 -8 -8 -17 -4 -20 3 -4 -1 -7
-10 -7 -10 0 -14 -5 -11 -15 4 -8 2 -15 -4 -15 -6 0 -13 -13 -17 -30 -4 -16
-11 -30 -16 -30 -5 0 -9 -6 -9 -14 0 -7 -10 -26 -22 -42 -13 -15 -17 -24 -9
-20 15 10 -17 -44 -34 -56 -5 -4 -6 -8 -1 -8 5 0 3 -7 -4 -15 -7 -8 -9 -15 -4
-15 4 0 -1 -7 -12 -16 -10 -8 -12 -12 -4 -8 8 5 5 -4 -8 -20 -12 -16 -22 -35
-22 -42 0 -8 -5 -14 -11 -14 -5 0 -7 -4 -4 -10 3 -5 1 -10 -5 -10 -6 0 -8 -4
-5 -10 3 -5 1 -10 -5 -10 -6 0 -8 -4 -5 -10 3 -5 1 -10 -5 -10 -6 0 -8 -4 -5
-10 3 -5 1 -10 -5 -10 -6 0 -9 -4 -6 -9 3 -5 -1 -14 -9 -21 -8 -7 -12 -16 -9
-21 3 -5 0 -9 -7 -9 -7 0 -9 -3 -6 -7 4 -3 1 -13 -7 -22 -8 -9 -15 -19 -15
-24 -1 -13 -33 -72 -43 -78 -5 -3 -9 -8 -9 -10 4 -11 -22 -69 -31 -69 -6 0 -7
-7 -4 -15 3 -9 -1 -18 -9 -21 -8 -4 -12 -10 -9 -15 3 -5 0 -9 -6 -9 -6 0 -9
-4 -5 -9 3 -5 -1 -16 -9 -24 -8 -8 -18 -26 -22 -41 -3 -14 -10 -26 -14 -26 -6
0 -21 -37 -19 -49 0 -2 -4 -7 -9 -10 -6 -3 -12 -13 -14 -21 -2 -8 -9 -21 -16
-28 -7 -8 -10 -17 -7 -22 3 -4 -2 -11 -10 -14 -8 -3 -15 -9 -14 -13 2 -16 -14
-53 -23 -53 -5 0 -6 -4 -3 -10 3 -5 2 -10 -3 -10 -9 0 -25 -37 -23 -52 1 -5
-3 -8 -8 -8 -5 0 -12 -11 -15 -25 -4 -14 -11 -25 -16 -25 -6 0 -10 -7 -10 -16
0 -9 -8 -28 -18 -42 -19 -27 -33 -60 -29 -65 1 -2 -6 -11 -15 -21 -10 -10 -18
-24 -18 -32 0 -8 -5 -14 -11 -14 -5 0 -7 -5 -4 -10 3 -6 -1 -13 -9 -16 -9 -3
-14 -10 -11 -14 3 -5 -2 -15 -11 -24 -8 -9 -13 -20 -10 -25 3 -5 -1 -12 -10
-15 -8 -3 -12 -10 -9 -16 3 -5 1 -10 -4 -10 -6 0 -11 -7 -11 -15 0 -8 -4 -15
-10 -15 -5 0 -6 7 -3 17 5 12 3 14 -7 8 -10 -6 -11 -4 -4 6 5 8 9 35 10 60 1
26 5 52 8 58 4 6 2 11 -5 11 -7 0 -4 7 7 16 10 8 14 13 7 10 -12 -7 -13 57 -1
70 4 4 3 15 -3 25 -6 13 -6 19 1 19 12 0 9 22 -5 32 -6 5 -6 8 2 8 7 0 10 10
7 25 -2 14 0 34 6 45 8 14 8 20 0 20 -8 0 -8 6 0 20 8 14 8 20 0 20 -6 0 -8 5
-3 13 4 6 8 44 10 82 1 39 2 70 3 70 3 0 10 113 12 178 1 31 7 57 12 57 6 0 5
5 -2 12 -7 7 -8 17 -2 29 7 12 6 20 0 24 -6 4 -7 12 -3 18 4 7 8 37 10 67 1
30 2 61 2 68 1 8 6 10 14 6 9 -6 9 -5 1 7 -7 8 -10 28 -8 44 2 17 4 64 6 107
1 42 5 75 8 73 3 -2 5 35 5 82 -1 46 3 87 8 90 4 2 3 11 -4 19 -6 8 -7 14 -2
14 5 0 9 19 10 43 0 23 1 68 2 100 1 41 4 56 13 51 7 -5 8 -3 2 7 -13 21 -14
39 -2 39 7 0 7 5 -1 13 -6 8 -8 17 -5 20 6 6 15 130 18 244 0 29 5 53 10 53 5
0 3 7 -4 15 -7 9 -8 15 -2 15 12 0 11 18 -2 39 -6 9 -5 12 1 8 9 -6 13 20 16
138 1 28 6 54 12 58 7 6 6 10 -2 13 -8 4 -9 13 -4 27 4 12 7 43 6 69 -1 32 2
45 9 41 6 -4 5 1 -3 10 -7 9 -10 17 -5 17 5 0 9 24 8 53 0 28 4 60 9 71 7 13
6 16 -3 11 -9 -6 -9 -2 -1 14 8 14 8 21 1 21 -7 0 -8 6 -2 18 5 9 9 34 8 55
-1 20 1 37 4 37 3 0 3 23 1 51 -2 40 0 50 9 44 9 -6 11 -4 4 6 -11 18 -14 39
-5 39 4 0 7 9 7 20 0 11 -3 20 -6 20 -4 0 -7 7 -7 15 0 8 3 12 6 10 4 -2 7 31
9 73 4 112 6 136 15 150 5 6 5 12 0 12 -4 0 -7 17 -6 37 1 21 2 38 3 38 3 0 9
80 12 157 2 43 7 78 13 78 6 0 3 5 -5 10 -13 9 -13 10 0 10 13 0 13 1 0 10
-13 9 -13 10 0 10 13 0 13 1 0 10 -8 5 -10 10 -5 10 6 0 10 24 10 55 -1 30 1
55 4 55 4 0 6 36 5 80 0 44 3 80 7 80 3 0 4 10 2 23 -5 23 -4 23 92 23 53 -1
99 2 102 7 2 4 10 4 16 0 6 -4 22 -8 34 -9z"/>
</g>
</svg>
